<svg width="48" height="48" fill="none" xmlns="http://www.w3.org/2000/svg"><g filter="url(#a)"><path d="M30.432 16.736c-.1.124-.705.136-1.819.037-1.113-.099-2.87-.26-5.27-.482v3.006a98.473 98.473 0 0 1 0 3.822c1.856.173 3.303.334 4.343.483 1.039.148 1.583.247 1.632.296.1.1.136.31.112.631-.025.297-.087.631-.186 1.002s-.223.73-.371 1.076c-.148.322-.297.532-.445.631-.124.05-.619.124-1.485.223-.84.074-2.04.148-3.6.223 0 1.063-.012 2.115-.036 3.154 0 1.039-.013 1.991-.037 2.857 2.4.025 4.143.075 5.232.149 1.113.05 1.72.123 1.818.222.1.124.1.36 0 .706-.074.346-.21.717-.408 1.113-.173.37-.371.742-.594 1.113-.198.371-.358.63-.482.78-.05.049-.346.074-.89.074a64.54 64.54 0 0 1-1.819-.112c-.668-.05-1.311-.099-1.93-.148-.618-.074-1.026-.136-1.224-.186a5.306 5.306 0 0 1-1.188-.593 3.322 3.322 0 0 1-1.002-1.114c-.05-.123-.136-.532-.26-1.224-.099-.718-.21-1.62-.334-2.71a165.637 165.637 0 0 1-.37-3.673c-.124-1.36-.248-2.746-.372-4.156a289.87 289.87 0 0 1-.334-4.157 937.24 937.24 0 0 1-.26-3.674 64.097 64.097 0 0 1-.074-2.746c0-.742.037-1.187.112-1.336.074-.197.42-.346 1.039-.445.618-.099 1.36-.16 2.226-.185.866-.05 1.794-.062 2.784-.038a46.79 46.79 0 0 1 2.82.149c.866.05 1.595.124 2.19.223.593.074.927.148 1.001.222.1.124.149.408.149.854.024.445 0 .94-.075 1.484-.05.52-.136 1.027-.26 1.522-.098.47-.21.779-.333.927Z" fill="#9E7EC4"/></g><defs><filter id="a" x="14.779" y="11.318" width="20.357" height="34.533" filterUnits="userSpaceOnUse" color-interpolation-filters="sRGB"><feFlood flood-opacity="0" result="BackgroundImageFix"/><feColorMatrix in="SourceAlpha" values="0 0 0 0 0 0 0 0 0 0 0 0 0 0 0 0 0 0 127 0" result="hardAlpha"/><feOffset dy="4"/><feGaussianBlur stdDeviation="2"/><feComposite in2="hardAlpha" operator="out"/><feColorMatrix values="0 0 0 0 0 0 0 0 0 0 0 0 0 0 0 0 0 0 0.25 0"/><feBlend in2="BackgroundImageFix" result="effect1_dropShadow_105_33"/><feBlend in="SourceGraphic" in2="effect1_dropShadow_105_33" result="shape"/></filter></defs></svg>