<svg width="105" height="30" fill="none" xmlns="http://www.w3.org/2000/svg"><g filter="url(#a)"><path d="M13.815 5.213c-.079.098-.557.107-1.436.03-.879-.079-2.266-.206-4.16-.382v2.373c.02.938.02 1.944 0 3.018a77.64 77.64 0 0 1 3.428.38c.82.118 1.25.196 1.288.235.079.078.108.244.088.498-.02.235-.068.498-.146.791a6.237 6.237 0 0 1-.293.85c-.117.254-.234.42-.352.498-.097.039-.488.098-1.171.176-.665.058-1.612.117-2.842.175 0 .84-.01 1.67-.03 2.49 0 .821-.01 1.573-.029 2.257 1.895.02 3.272.058 4.131.117.879.039 1.357.097 1.436.175.078.098.078.284 0 .557a3.74 3.74 0 0 1-.323.88 9.605 9.605 0 0 1-.469.878 3.952 3.952 0 0 1-.38.615c-.04.04-.274.059-.703.059a52.81 52.81 0 0 1-1.436-.088c-.527-.04-1.035-.078-1.523-.117a9.793 9.793 0 0 1-.967-.147 4.192 4.192 0 0 1-.938-.468 2.623 2.623 0 0 1-.79-.88c-.04-.097-.108-.42-.206-.966a92.96 92.96 0 0 1-.263-2.139c-.098-.86-.196-1.826-.293-2.9a810.68 810.68 0 0 1-.293-3.282 220.948 220.948 0 0 1-.264-3.28 647.47 647.47 0 0 1-.205-2.901 50.637 50.637 0 0 1-.059-2.168c0-.586.03-.938.088-1.055.059-.156.332-.273.82-.351A13.825 13.825 0 0 1 7.281.994 27.147 27.147 0 0 1 9.48.964c.8.02 1.543.06 2.226.118.684.04 1.26.098 1.729.176.468.058.732.117.79.176.079.097.118.322.118.673.02.352 0 .743-.059 1.172-.039.41-.107.81-.205 1.201-.078.372-.166.616-.263.733Zm9.837 16.611c-.136.04-.293-.01-.468-.146a4.117 4.117 0 0 1-.528-.498 4.787 4.787 0 0 1-.41-.674 3.016 3.016 0 0 1-.234-.586 659.44 659.44 0 0 1-.352-4.6 2249.3 2249.3 0 0 1-.205-3.633 658.993 658.993 0 0 1-.146-2.724c-.02-.781-.03-1.445-.03-1.992-.02-1.27 0-2.149.059-2.637.058-.352.215-.703.469-1.055.273-.351.556-.654.85-.908.312-.254.595-.45.849-.586.273-.137.45-.176.527-.117.078.059.137.39.176.996.039.586.068 1.357.088 2.315.02.957.02 2.03 0 3.222 0 1.192-.02 2.412-.059 3.662-.02 1.25-.049 2.471-.088 3.662a107.54 107.54 0 0 1-.146 3.194 59.27 59.27 0 0 1-.176 2.226c-.058.567-.117.86-.176.88Zm11.83-12.422c.04.098.059.41.059.938.02.508.02 1.133 0 1.875 0 .723-.02 1.504-.059 2.344-.039.82-.087 1.601-.146 2.343a33.83 33.83 0 0 1-.146 1.875c-.06.508-.118.81-.176.909-.176.273-.44.449-.791.527-.352.058-.606.068-.762.03-.078 0-.166-.225-.264-.675a30.234 30.234 0 0 1-.234-1.699 55.162 55.162 0 0 1-.205-2.226c-.059-.801-.108-1.563-.147-2.286a37.513 37.513 0 0 1-.058-1.933c0-.547.02-.899.058-1.055.059-.254.225-.478.498-.674a3.59 3.59 0 0 1 .909-.44 2.58 2.58 0 0 1 .908-.116c.293 0 .478.088.556.263Zm.147-4.746c.078.157.107.371.088.645 0 .273-.03.556-.088.85a6.045 6.045 0 0 1-.234.849 3.411 3.411 0 0 1-.293.645c-.196.273-.489.449-.88.527-.37.058-.644.068-.82.03-.136-.02-.273-.108-.41-.264a2.669 2.669 0 0 1-.351-.616 3.61 3.61 0 0 1-.206-.82 2.286 2.286 0 0 1 .03-.82c.058-.254.244-.479.556-.674.313-.215.645-.371.997-.469.351-.117.683-.166.996-.146.312 0 .517.087.615.263Zm14.379 2.285c.02.059.02.225 0 .498-.02.254-.059.547-.117.88-.04.312-.088.605-.147.878-.059.254-.107.41-.146.469-.196.02-.391.03-.586.03a5.488 5.488 0 0 0-.557-.03h-.615c-.02 1.29-.049 2.568-.088 3.838-.04 1.27-.088 2.412-.147 3.428a38.723 38.723 0 0 1-.205 2.431c-.058.625-.117.948-.175.967-.137.02-.293-.039-.47-.176a4.111 4.111 0 0 1-.527-.498c-.156-.215-.302-.43-.439-.644a1.886 1.886 0 0 1-.205-.616 369.241 369.241 0 0 1-.264-3.398c-.078-1.094-.136-2.06-.175-2.9a48.53 48.53 0 0 1-.147-2.725 7.297 7.297 0 0 1-.645-.088c-.195-.039-.4-.078-.615-.117-.195-.04-.4-.078-.615-.117a.952.952 0 0 1-.146-.264 14.296 14.296 0 0 1-.176-.498c-.04-.176-.078-.342-.117-.498a2.002 2.002 0 0 1-.059-.38c0-.06.215-.118.645-.177.449-.058.996-.107 1.64-.146a225.73 225.73 0 0 1-.088-2.695c0-.782.03-1.309.088-1.582a2.32 2.32 0 0 1 .469-1.055 6.37 6.37 0 0 1 .85-.908c.312-.254.595-.44.85-.557.273-.137.448-.176.526-.117.06.039.108.244.147.615.039.352.068.83.088 1.436.02.605.03 1.318.03 2.138v2.55a13.07 13.07 0 0 1 1.493-.03c.41 0 .625.02.645.058Zm18.861-2.285c.371.313.645.938.82 1.875.176.918.245 1.944.206 3.076-.02.352-.069.84-.147 1.465a72.7 72.7 0 0 1-.293 2.022 52.23 52.23 0 0 1-.352 2.226 79.41 79.41 0 0 1-.351 2.11 50.215 50.215 0 0 1-.322 1.64c-.078.43-.127.684-.147.762-.039.137-.146.273-.322.41a3.334 3.334 0 0 1-.557.352 2.784 2.784 0 0 1-.527.175c-.176.02-.283-.019-.322-.117-.02-.058-.02-.361 0-.908s.048-1.22.088-2.021c.039-.82.078-1.69.117-2.608.058-.937.107-1.816.146-2.636.04-.82.078-1.514.117-2.08.04-.586.059-.938.059-1.055.02-.606-.03-1.133-.146-1.582-.118-.469-.313-.703-.586-.703-.098 0-.215.048-.352.146a2.666 2.666 0 0 0-.41.293 6.757 6.757 0 0 0-.352.38.67.67 0 0 0-.146.382l-.088 1.553c-.02.683-.049 1.435-.088 2.255-.02.82-.049 1.66-.088 2.52-.02.86-.049 1.65-.088 2.373-.02.723-.039 1.328-.058 1.816-.02.47-.04.733-.059.791-.039.078-.166.137-.38.176-.196.02-.42.02-.675 0a2.642 2.642 0 0 1-.703-.146c-.195-.078-.312-.186-.351-.323-.04-.097-.069-.39-.088-.878a114.82 114.82 0 0 0-.088-1.817c-.02-.703-.04-1.455-.059-2.256-.02-.82-.039-1.582-.058-2.285-.02-.703-.04-1.309-.059-1.816v-.938c0-.469-.039-.84-.117-1.113-.078-.293-.176-.518-.293-.674-.098-.176-.215-.283-.352-.322a1.034 1.034 0 0 0-.41-.088c-.058 0-.146.049-.263.146a1.35 1.35 0 0 0-.352.381 2.142 2.142 0 0 0-.293.557c-.078.195-.107.41-.088.644 0 .098.01.46.03 1.084.019.625.029 1.377.029 2.256.02.88.039 1.826.058 2.842.02 1.016.03 1.963.03 2.842.02.86.029 1.592.029 2.197v.938c-.04.097-.146.156-.322.175-.176 0-.371-.039-.586-.117a2.644 2.644 0 0 1-.615-.322 1.258 1.258 0 0 1-.41-.557 13.81 13.81 0 0 1-.176-1.025c-.078-.527-.166-1.152-.264-1.875a158.54 158.54 0 0 1-.293-2.373c-.098-.86-.195-1.68-.293-2.461l-.264-2.168a60.186 60.186 0 0 0-.146-1.465 88.303 88.303 0 0 0-.205-1.523 137.74 137.74 0 0 0-.176-1.612c-.04-.527-.068-.976-.088-1.347-.02-.39 0-.635.059-.733.039-.078.175-.107.41-.088.254.02.517.079.79.176.294.078.567.195.821.352.274.136.45.283.528.44.058.116.117.263.175.439.078.156.157.41.235.761.332-.254.674-.488 1.025-.703.352-.234.703-.41 1.055-.527.351-.137.683-.205.996-.205.332-.02.644.068.937.263.254.196.498.538.733 1.026.937-.527 1.836-.889 2.695-1.084.879-.215 1.572-.137 2.08.234Zm14.936 1.319c.136.117.263.341.38.673.137.332.254.733.352 1.202.098.468.186.976.264 1.523.078.547.146 1.084.205 1.611.058.528.097 1.026.117 1.495.04.449.068.82.088 1.113.02.351.03.723.03 1.113.019.371.019.732 0 1.084 0 .332-.02.635-.06.908-.019.274-.058.479-.117.616a1.062 1.062 0 0 1-.615.615 4.149 4.149 0 0 1-.937.205c-.176.02-.479.03-.909.03-.41-.02-.859-.04-1.347-.06-.469-.039-.918-.078-1.348-.117a11.92 11.92 0 0 1-.967-.117c-.43-.098-.742-.224-.937-.38a2.886 2.886 0 0 1-.527-.675c-.059-.117-.108-.41-.147-.879a34.829 34.829 0 0 1-.088-1.728 88.355 88.355 0 0 1 .117-4.424c.059-.703.118-1.318.176-1.845.078-.528.176-.88.293-1.055.195-.274.528-.528.996-.762.489-.234.928-.42 1.319-.557a3.48 3.48 0 0 1 .761-.117 4.512 4.512 0 0 1 1.026 0c.37.02.722.078 1.054.176.332.078.606.195.82.352Zm-1.64 9.082c.038-.079.077-.313.116-.704.059-.41.098-.898.117-1.464.04-.567.059-1.172.059-1.817.02-.644.03-1.24.03-1.787 0-.547-.02-1.006-.06-1.377-.038-.39-.087-.615-.146-.674-.097-.078-.244-.107-.44-.088-.175 0-.36.03-.556.088-.195.04-.37.098-.527.176a.941.941 0 0 0-.322.176c-.254.215-.391.566-.41 1.055 0 .136-.02.527-.06 1.171a68.07 68.07 0 0 0-.028 2.051c0 .723.01 1.397.029 2.022.039.625.107 1.006.205 1.142a.976.976 0 0 0 .41.323c.195.058.39.088.586.088.215 0 .41-.03.586-.088.195-.079.332-.176.41-.293ZM99.18 6.033c.156.098.302.293.44.586.155.274.292.596.409.967.137.351.244.732.323 1.143.097.41.175.79.234 1.142.078.352.127.654.146.908.02.235.02.381 0 .44-.039.078-.156.156-.351.234-.176.078-.44.166-.791.264-.352.098-.84.205-1.465.322-.04-1.074-.117-1.885-.234-2.432-.118-.566-.245-.966-.381-1.2-.157-.274-.323-.41-.498-.41a1.901 1.901 0 0 0-.469.292 1.864 1.864 0 0 0-.352.322 3.635 3.635 0 0 0-.322.44c-.039.058-.078.195-.117.41-.04.215-.078.537-.117.967 0 .136-.01.42-.03.85 0 .429-.01.927-.029 1.493 0 .567-.01 1.163-.03 1.788a50.8 50.8 0 0 1-.028 1.757c0 .528-.01.977-.03 1.348 0 .371-.01.586-.029.645-.04.097-.137.234-.293.41a4.289 4.289 0 0 1-.527.498 6.226 6.226 0 0 1-.557.351c-.176.078-.293.069-.351-.029-.06-.059-.118-.312-.176-.762-.059-.449-.127-.996-.205-1.64-.059-.664-.127-1.387-.206-2.168-.078-.781-.146-1.534-.205-2.256-.058-.723-.107-1.367-.146-1.934-.04-.586-.068-1.006-.088-1.26-.02-.37-.039-.78-.058-1.23-.02-.45-.04-.87-.06-1.26V5.975c.02-.313.06-.498.118-.557.04-.059.166-.068.38-.03.235.02.48.079.733.176.274.079.528.186.762.323.234.136.39.263.469.38.058.098.117.245.176.44.37-.195.722-.371 1.054-.527a4.91 4.91 0 0 1 .996-.381c.332-.078.655-.098.967-.059.313.02.625.117.938.293Z" fill="#FFF79C"/></g><defs><filter id="a" x=".615" y=".086" width="104.146" height="29.797" filterUnits="userSpaceOnUse" color-interpolation-filters="sRGB"><feFlood flood-opacity="0" result="BackgroundImageFix"/><feColorMatrix in="SourceAlpha" values="0 0 0 0 0 0 0 0 0 0 0 0 0 0 0 0 0 0 127 0" result="hardAlpha"/><feOffset dy="4"/><feGaussianBlur stdDeviation="2"/><feComposite in2="hardAlpha" operator="out"/><feColorMatrix values="0 0 0 0 0 0 0 0 0 0 0 0 0 0 0 0 0 0 0.25 0"/><feBlend in2="BackgroundImageFix" result="effect1_dropShadow_102_5"/><feBlend in="SourceGraphic" in2="effect1_dropShadow_102_5" result="shape"/></filter></defs></svg>