
<svg width="800px" height="800px" viewBox="0 0 36.00 36.00" xmlns="http://www.w3.org/2000/svg" xmlns:xlink="http://www.w3.org/1999/xlink" aria-hidden="true" role="img" class="iconify iconify--twemoji" preserveAspectRatio="xMidYMid meet" fill="#000000" transform="rotate(0)matrix(1, 0, 0, 1, 0, 0)" stroke="#000000" stroke-width="0.00036">
<g id="SVGRepo_bgCarrier" stroke-width="0"/>
<g id="SVGRepo_tracerCarrier" stroke-linecap="round" stroke-linejoin="round" stroke="#CCCCCC" stroke-width="0.144"/>
<g id="SVGRepo_iconCarrier">
<path fill="#b4009e" d="M12.219 9.621c0-1.55.775-2.697 2.418-2.697h7.689c1.488 0 2.202 1.054 2.202 2.14c0 1.054-.744 2.139-2.202 2.139H16.87v4.527h5.085c1.52 0 2.264 1.054 2.264 2.14c0 1.054-.775 2.139-2.264 2.139H16.87v4.713h5.736c1.488 0 2.201 1.055 2.201 2.14c0 1.055-.744 2.14-2.201 2.14h-7.999c-1.364 0-2.387-.93-2.387-2.325V9.621z"/>
</g>
</svg>