<svg width="105" height="30" viewBox="0 0 105 30" fill="none" xmlns="http://www.w3.org/2000/svg">
<g filter="url(#filter0_d_102_5)">
<path d="M13.8145 5.21289C13.7363 5.31055 13.2578 5.32031 12.3789 5.24219C11.5 5.16406 10.1133 5.03711 8.21875 4.86133C8.21875 5.50586 8.21875 6.29688 8.21875 7.23438C8.23828 8.17188 8.23828 9.17773 8.21875 10.252C9.68359 10.3887 10.8262 10.5156 11.6465 10.6328C12.4668 10.75 12.8965 10.8281 12.9355 10.8672C13.0137 10.9453 13.043 11.1113 13.0234 11.3652C13.0039 11.5996 12.9551 11.8633 12.877 12.1562C12.7988 12.4492 12.7012 12.7324 12.584 13.0059C12.4668 13.2598 12.3496 13.4258 12.2324 13.5039C12.1348 13.543 11.7441 13.6016 11.0605 13.6797C10.3965 13.7383 9.44922 13.7969 8.21875 13.8555C8.21875 14.6953 8.20898 15.5254 8.18945 16.3457C8.18945 17.166 8.17969 17.918 8.16016 18.6016C10.0547 18.6211 11.4316 18.6602 12.291 18.7188C13.1699 18.7578 13.6484 18.8164 13.7266 18.8945C13.8047 18.9922 13.8047 19.1777 13.7266 19.4512C13.668 19.7246 13.5605 20.0176 13.4043 20.3301C13.2676 20.623 13.1113 20.916 12.9355 21.209C12.7793 21.502 12.6523 21.707 12.5547 21.8242C12.5156 21.8633 12.2812 21.8828 11.8516 21.8828C11.4219 21.8633 10.9434 21.834 10.416 21.7949C9.88867 21.7559 9.38086 21.7168 8.89258 21.6777C8.4043 21.6191 8.08203 21.5703 7.92578 21.5312C7.63281 21.4336 7.32031 21.2773 6.98828 21.0625C6.65625 20.8281 6.39258 20.5352 6.19727 20.1836C6.1582 20.0859 6.08984 19.7637 5.99219 19.2168C5.91406 18.6504 5.82617 17.9375 5.72852 17.0781C5.63086 16.2188 5.5332 15.252 5.43555 14.1777C5.33789 13.1035 5.24023 12.0098 5.14258 10.8965C5.04492 9.7832 4.95703 8.68945 4.87891 7.61523C4.80078 6.54102 4.73242 5.57422 4.67383 4.71484C4.63477 3.83594 4.61523 3.11328 4.61523 2.54688C4.61523 1.96094 4.64453 1.60938 4.70312 1.49219C4.76172 1.33594 5.03516 1.21875 5.52344 1.14062C6.01172 1.0625 6.59766 1.01367 7.28125 0.994141C7.96484 0.955078 8.69727 0.945313 9.47852 0.964844C10.2793 0.984375 11.0215 1.02344 11.7051 1.08203C12.3887 1.12109 12.9648 1.17969 13.4336 1.25781C13.9023 1.31641 14.166 1.375 14.2246 1.43359C14.3027 1.53125 14.3418 1.75586 14.3418 2.10742C14.3613 2.45898 14.3418 2.84961 14.2832 3.2793C14.2441 3.68945 14.1758 4.08984 14.0781 4.48047C14 4.85156 13.9121 5.0957 13.8145 5.21289ZM23.6523 21.8242C23.5156 21.8633 23.3594 21.8145 23.1836 21.6777C23.0078 21.541 22.832 21.375 22.6562 21.1797C22.5 20.9648 22.3633 20.7402 22.2461 20.5059C22.1289 20.2715 22.0508 20.0762 22.0117 19.9199C21.875 18.2012 21.7578 16.668 21.6602 15.3203C21.582 13.9531 21.5137 12.7422 21.4551 11.6875C21.3965 10.6328 21.3477 9.72461 21.3086 8.96289C21.2891 8.18164 21.2793 7.51758 21.2793 6.9707C21.2598 5.70117 21.2793 4.82227 21.3379 4.33398C21.3965 3.98242 21.5527 3.63086 21.8066 3.2793C22.0801 2.92773 22.3633 2.625 22.6562 2.37109C22.9688 2.11719 23.252 1.92187 23.5059 1.78516C23.7793 1.64844 23.9551 1.60938 24.0332 1.66797C24.1113 1.72656 24.1699 2.05859 24.209 2.66406C24.248 3.25 24.2773 4.02148 24.2969 4.97852C24.3164 5.93555 24.3164 7.00977 24.2969 8.20117C24.2969 9.39258 24.2773 10.6133 24.2383 11.8633C24.2188 13.1133 24.1895 14.334 24.1504 15.5254C24.1113 16.7168 24.0625 17.7812 24.0039 18.7188C23.9453 19.6367 23.8867 20.3789 23.8281 20.9453C23.7695 21.5117 23.7109 21.8047 23.6523 21.8242ZM35.4824 9.40234C35.5215 9.5 35.541 9.8125 35.541 10.3398C35.5605 10.8477 35.5605 11.4727 35.541 12.2148C35.541 12.9375 35.5215 13.7188 35.4824 14.5586C35.4434 15.3789 35.3945 16.1602 35.3359 16.9023C35.2969 17.625 35.248 18.25 35.1895 18.7773C35.1309 19.2852 35.0723 19.5879 35.0137 19.6855C34.8379 19.959 34.5742 20.1348 34.2227 20.2129C33.8711 20.2715 33.6172 20.2812 33.4609 20.2422C33.3828 20.2422 33.2949 20.0176 33.1973 19.5684C33.1191 19.1191 33.041 18.5527 32.9629 17.8691C32.8848 17.1855 32.8164 16.4434 32.7578 15.6426C32.6992 14.8418 32.6504 14.0801 32.6113 13.3574C32.5723 12.6152 32.5527 11.9707 32.5527 11.4238C32.5527 10.877 32.5723 10.5254 32.6113 10.3691C32.6699 10.1152 32.8359 9.89062 33.1094 9.69531C33.4023 9.5 33.7051 9.35352 34.0176 9.25586C34.3496 9.1582 34.6523 9.11914 34.9258 9.13867C35.2188 9.13867 35.4043 9.22656 35.4824 9.40234ZM35.6289 4.65625C35.707 4.8125 35.7363 5.02734 35.7168 5.30078C35.7168 5.57422 35.6875 5.85742 35.6289 6.15039C35.5703 6.44336 35.4922 6.72656 35.3945 7C35.2969 7.27344 35.1992 7.48828 35.1016 7.64453C34.9062 7.91797 34.6133 8.09375 34.2227 8.17188C33.8516 8.23047 33.5781 8.24023 33.4023 8.20117C33.2656 8.18164 33.1289 8.09375 32.9922 7.9375C32.8555 7.76172 32.7383 7.55664 32.6406 7.32227C32.543 7.06836 32.4746 6.79492 32.4355 6.50195C32.3965 6.20898 32.4062 5.93555 32.4648 5.68164C32.5234 5.42773 32.709 5.20312 33.0215 5.00781C33.334 4.79297 33.666 4.63672 34.0176 4.53906C34.3691 4.42188 34.7012 4.37305 35.0137 4.39258C35.3262 4.39258 35.5312 4.48047 35.6289 4.65625ZM50.0078 6.94141C50.0273 7 50.0273 7.16602 50.0078 7.43945C49.9883 7.69336 49.9492 7.98633 49.8906 8.31836C49.8516 8.63086 49.8027 8.92383 49.7441 9.19727C49.6855 9.45117 49.6367 9.60742 49.5977 9.66602C49.4023 9.68555 49.207 9.69531 49.0117 9.69531C48.8164 9.67578 48.6309 9.66602 48.4551 9.66602H47.8398C47.8203 10.9551 47.791 12.2344 47.752 13.5039C47.7129 14.7734 47.6641 15.916 47.6055 16.9316C47.5469 17.9277 47.4785 18.7383 47.4004 19.3633C47.3418 19.9883 47.2832 20.3105 47.2246 20.3301C47.0879 20.3496 46.9316 20.291 46.7559 20.1543C46.5801 20.0176 46.4043 19.8516 46.2285 19.6562C46.0723 19.4414 45.9258 19.2266 45.7891 19.0117C45.6719 18.7773 45.6035 18.5723 45.584 18.3965C45.4863 17.2051 45.3984 16.0723 45.3203 14.998C45.2422 13.9043 45.1836 12.9375 45.1445 12.0977C45.0664 11.1211 45.0176 10.2129 44.998 9.37305C44.7832 9.35352 44.5684 9.32422 44.3535 9.28516C44.1582 9.24609 43.9531 9.20703 43.7383 9.16797C43.543 9.12891 43.3379 9.08984 43.123 9.05078C43.084 9.01172 43.0352 8.92383 42.9766 8.78711C42.918 8.63086 42.8594 8.46484 42.8008 8.28906C42.7617 8.11328 42.7227 7.94727 42.6836 7.79102C42.6445 7.61523 42.625 7.48828 42.625 7.41016C42.625 7.35156 42.8398 7.29297 43.2695 7.23438C43.7188 7.17578 44.2656 7.12695 44.9102 7.08789C44.8711 6.05273 44.8418 5.1543 44.8223 4.39258C44.8223 3.61133 44.8516 3.08398 44.9102 2.81055C44.9688 2.43945 45.125 2.08789 45.3789 1.75586C45.6523 1.4043 45.9355 1.10156 46.2285 0.847656C46.541 0.59375 46.8242 0.408203 47.0781 0.291016C47.3516 0.154297 47.5273 0.115234 47.6055 0.173828C47.6641 0.212891 47.7129 0.417969 47.752 0.789062C47.791 1.14062 47.8203 1.61914 47.8398 2.22461C47.8594 2.83008 47.8691 3.54297 47.8691 4.36328C47.8691 5.16406 47.8691 6.01367 47.8691 6.91211C48.4551 6.87305 48.9531 6.86328 49.3633 6.88281C49.7734 6.88281 49.9883 6.90234 50.0078 6.94141ZM68.8691 4.65625C69.2402 4.96875 69.5137 5.59375 69.6895 6.53125C69.8652 7.44922 69.9336 8.47461 69.8945 9.60742C69.875 9.95898 69.8262 10.4473 69.748 11.0723C69.6699 11.6777 69.5723 12.3516 69.4551 13.0938C69.3574 13.8164 69.2402 14.5586 69.1035 15.3203C68.9863 16.082 68.8691 16.7852 68.752 17.4297C68.6348 18.0742 68.5273 18.6211 68.4297 19.0703C68.3516 19.5 68.3027 19.7539 68.2832 19.832C68.2441 19.9688 68.1367 20.1055 67.9609 20.2422C67.7852 20.3789 67.5996 20.4961 67.4043 20.5938C67.2285 20.6719 67.0527 20.7305 66.877 20.7695C66.7012 20.7891 66.5938 20.75 66.5547 20.6523C66.5352 20.5938 66.5352 20.291 66.5547 19.7441C66.5742 19.1973 66.6035 18.5234 66.6426 17.7227C66.6816 16.9023 66.7207 16.0332 66.7598 15.1152C66.8184 14.1777 66.8672 13.2988 66.9062 12.4785C66.9453 11.6582 66.9844 10.9648 67.0234 10.3984C67.0625 9.8125 67.082 9.46094 67.082 9.34375C67.1016 8.73828 67.0527 8.21094 66.9355 7.76172C66.8184 7.29297 66.623 7.05859 66.3496 7.05859C66.252 7.05859 66.1348 7.10742 65.998 7.20508C65.8613 7.2832 65.7246 7.38086 65.5879 7.49805C65.4707 7.61523 65.3535 7.74219 65.2363 7.87891C65.1387 8.01562 65.0898 8.14258 65.0898 8.25977C65.0703 8.61133 65.041 9.12891 65.002 9.8125C64.9824 10.4961 64.9531 11.248 64.9141 12.0684C64.8945 12.8887 64.8652 13.7285 64.8262 14.5879C64.8066 15.4473 64.7773 16.2383 64.7383 16.9609C64.7188 17.6836 64.6992 18.2891 64.6797 18.7773C64.6602 19.2461 64.6406 19.5098 64.6211 19.5684C64.582 19.6465 64.4551 19.7051 64.2402 19.7441C64.0449 19.7637 63.8203 19.7637 63.5664 19.7441C63.3125 19.7246 63.0781 19.6758 62.8633 19.5977C62.668 19.5195 62.5508 19.4121 62.5117 19.2754C62.4727 19.1777 62.4434 18.8848 62.4238 18.3965C62.4043 17.8887 62.375 17.2832 62.3359 16.5801C62.3164 15.877 62.2969 15.125 62.2773 14.3242C62.2578 13.5039 62.2383 12.7422 62.2188 12.0391C62.1992 11.3359 62.1797 10.7305 62.1602 10.2227C62.1602 9.71484 62.1602 9.40234 62.1602 9.28516C62.1602 8.81641 62.1211 8.44531 62.043 8.17188C61.9648 7.87891 61.8672 7.6543 61.75 7.49805C61.6523 7.32227 61.5352 7.21484 61.3984 7.17578C61.2617 7.11719 61.125 7.08789 60.9883 7.08789C60.9297 7.08789 60.8418 7.13672 60.7246 7.23438C60.6074 7.3125 60.4902 7.43945 60.373 7.61523C60.2559 7.77148 60.1582 7.95703 60.0801 8.17188C60.002 8.36719 59.9727 8.58203 59.9922 8.81641C59.9922 8.91406 60.002 9.27539 60.0215 9.90039C60.041 10.5254 60.0508 11.2773 60.0508 12.1562C60.0703 13.0352 60.0898 13.9824 60.1094 14.998C60.1289 16.0137 60.1387 16.9609 60.1387 17.8398C60.1582 18.6992 60.168 19.4316 60.168 20.0371C60.168 20.623 60.168 20.9355 60.168 20.9746C60.1289 21.0723 60.0215 21.1309 59.8457 21.1504C59.6699 21.1504 59.4746 21.1113 59.2598 21.0332C59.0449 20.9551 58.8398 20.8477 58.6445 20.7109C58.4492 20.5547 58.3125 20.3691 58.2344 20.1543C58.1953 19.998 58.1367 19.6562 58.0586 19.1289C57.9805 18.6016 57.8926 17.9766 57.7949 17.2539C57.6973 16.5117 57.5996 15.7207 57.502 14.8809C57.4043 14.0215 57.3066 13.2012 57.209 12.4199C57.1113 11.6191 57.0234 10.8965 56.9453 10.252C56.8867 9.60742 56.8379 9.11914 56.7988 8.78711C56.7402 8.31836 56.6719 7.81055 56.5938 7.26367C56.5352 6.69727 56.4766 6.16016 56.418 5.65234C56.3789 5.125 56.3496 4.67578 56.3301 4.30469C56.3105 3.91406 56.3301 3.66992 56.3887 3.57227C56.4277 3.49414 56.5645 3.46484 56.7988 3.48438C57.0527 3.50391 57.3164 3.5625 57.5898 3.66016C57.8828 3.73828 58.1562 3.85547 58.4102 4.01172C58.6836 4.14844 58.8594 4.29492 58.9375 4.45117C58.9961 4.56836 59.0547 4.71484 59.1133 4.89062C59.1914 5.04688 59.2695 5.30078 59.3477 5.65234C59.6797 5.39844 60.0215 5.16406 60.373 4.94922C60.7246 4.71484 61.0762 4.53906 61.4277 4.42188C61.7793 4.28516 62.1113 4.2168 62.4238 4.2168C62.7559 4.19727 63.0684 4.28516 63.3613 4.48047C63.6152 4.67578 63.8594 5.01758 64.0938 5.50586C65.0312 4.97852 65.9297 4.61719 66.7891 4.42188C67.668 4.20703 68.3613 4.28516 68.8691 4.65625ZM83.8047 5.97461C83.9414 6.0918 84.0684 6.31641 84.1855 6.64844C84.3223 6.98047 84.4395 7.38086 84.5371 7.84961C84.6348 8.31836 84.7227 8.82617 84.8008 9.37305C84.8789 9.91992 84.9473 10.457 85.0059 10.9844C85.0645 11.5117 85.1035 12.0098 85.123 12.4785C85.1621 12.9277 85.1914 13.2988 85.2109 13.5918C85.2305 13.9434 85.2402 14.3145 85.2402 14.7051C85.2598 15.0762 85.2598 15.4375 85.2402 15.7891C85.2402 16.1211 85.2207 16.4238 85.1816 16.6973C85.1621 16.9707 85.123 17.1758 85.0645 17.3125C84.9473 17.6055 84.7422 17.8105 84.4492 17.9277C84.1758 18.0254 83.8633 18.0938 83.5117 18.1328C83.3359 18.1523 83.0332 18.1621 82.6035 18.1621C82.1934 18.1426 81.7441 18.123 81.2559 18.1035C80.7871 18.0645 80.3379 18.0254 79.9082 17.9863C79.4785 17.9473 79.1562 17.9082 78.9414 17.8691C78.5117 17.7715 78.1992 17.6445 78.0039 17.4883C77.8281 17.332 77.6523 17.1074 77.4766 16.8145C77.418 16.6973 77.3691 16.4043 77.3301 15.9355C77.291 15.4473 77.2617 14.8711 77.2422 14.207C77.2422 13.5234 77.252 12.791 77.2715 12.0098C77.291 11.2285 77.3203 10.4863 77.3594 9.7832C77.418 9.08008 77.4766 8.46484 77.5352 7.9375C77.6133 7.41016 77.7109 7.05859 77.8281 6.88281C78.0234 6.60937 78.3555 6.35547 78.8242 6.12109C79.3125 5.88672 79.752 5.70117 80.1426 5.56445C80.3379 5.50586 80.5918 5.4668 80.9043 5.44727C81.2363 5.4082 81.5781 5.4082 81.9297 5.44727C82.3008 5.4668 82.6523 5.52539 82.9844 5.62305C83.3164 5.70117 83.5898 5.81836 83.8047 5.97461ZM82.1641 15.0566C82.2031 14.9785 82.2422 14.7441 82.2812 14.3535C82.3398 13.9434 82.3789 13.4551 82.3984 12.8887C82.4375 12.3223 82.457 11.7168 82.457 11.0723C82.4766 10.4277 82.4863 9.83203 82.4863 9.28516C82.4863 8.73828 82.4668 8.2793 82.4277 7.9082C82.3887 7.51758 82.3398 7.29297 82.2812 7.23438C82.1836 7.15625 82.0371 7.12695 81.8418 7.14648C81.666 7.14648 81.4805 7.17578 81.2852 7.23438C81.0898 7.27344 80.9141 7.33203 80.7578 7.41016C80.6016 7.46875 80.4941 7.52734 80.4355 7.58594C80.1816 7.80078 80.0449 8.15234 80.0254 8.64062C80.0254 8.77734 80.0059 9.16797 79.9668 9.8125C79.9473 10.4375 79.9375 11.1211 79.9375 11.8633C79.9375 12.5859 79.9473 13.2598 79.9668 13.8848C80.0059 14.5098 80.0742 14.8906 80.1719 15.0273C80.2695 15.1641 80.4062 15.2715 80.582 15.3496C80.7773 15.4082 80.9727 15.4375 81.168 15.4375C81.3828 15.4375 81.5781 15.4082 81.7539 15.3496C81.9492 15.2715 82.0859 15.1738 82.1641 15.0566ZM99.1797 6.0332C99.3359 6.13086 99.4824 6.32617 99.6191 6.61914C99.7754 6.89258 99.9121 7.21484 100.029 7.58594C100.166 7.9375 100.273 8.31836 100.352 8.72852C100.449 9.13867 100.527 9.51953 100.586 9.87109C100.664 10.2227 100.713 10.5254 100.732 10.7793C100.752 11.0137 100.752 11.1602 100.732 11.2188C100.693 11.2969 100.576 11.375 100.381 11.4531C100.205 11.5312 99.9414 11.6191 99.5898 11.7168C99.2383 11.8145 98.75 11.9219 98.125 12.0391C98.0859 10.9648 98.0078 10.1543 97.8906 9.60742C97.7734 9.04102 97.6465 8.64062 97.5098 8.40625C97.3535 8.13281 97.1875 7.99609 97.0117 7.99609C96.8359 8.07422 96.6797 8.17188 96.543 8.28906C96.4062 8.38672 96.2891 8.49414 96.1914 8.61133C96.0742 8.74805 95.9668 8.89453 95.8691 9.05078C95.8301 9.10938 95.791 9.24609 95.752 9.46094C95.7129 9.67578 95.6738 9.99805 95.6348 10.4277C95.6348 10.5645 95.625 10.8477 95.6055 11.2773C95.6055 11.707 95.5957 12.2051 95.5762 12.7715C95.5762 13.3379 95.5664 13.9336 95.5469 14.5586C95.5469 15.1836 95.5371 15.7695 95.5176 16.3164C95.5176 16.8438 95.5078 17.293 95.4883 17.6641C95.4883 18.0352 95.4785 18.25 95.459 18.3086C95.4199 18.4062 95.3223 18.543 95.166 18.7188C95.0098 18.8945 94.834 19.0605 94.6387 19.2168C94.4434 19.3535 94.2578 19.4707 94.082 19.5684C93.9062 19.6465 93.7891 19.6367 93.7305 19.5391C93.6719 19.4805 93.6133 19.2266 93.5547 18.7773C93.4961 18.3281 93.4277 17.7812 93.3496 17.1367C93.291 16.4727 93.2227 15.75 93.1445 14.9688C93.0664 14.1875 92.998 13.4355 92.9395 12.7129C92.8809 11.9902 92.832 11.3457 92.793 10.7793C92.7539 10.1934 92.7246 9.77344 92.7051 9.51953C92.6855 9.14844 92.666 8.73828 92.6465 8.28906C92.627 7.83984 92.6074 7.41992 92.5879 7.0293C92.5879 6.61914 92.5879 6.26758 92.5879 5.97461C92.6074 5.66211 92.6465 5.47656 92.7051 5.41797C92.7441 5.35938 92.8711 5.34961 93.0859 5.38867C93.3203 5.4082 93.5645 5.4668 93.8184 5.56445C94.0918 5.64258 94.3457 5.75 94.5801 5.88672C94.8145 6.02344 94.9707 6.15039 95.0488 6.26758C95.1074 6.36523 95.166 6.51172 95.2246 6.70703C95.5957 6.51172 95.9473 6.33594 96.2793 6.17969C96.6309 6.00391 96.9629 5.87695 97.2754 5.79883C97.6074 5.7207 97.9297 5.70117 98.2422 5.74023C98.5547 5.75977 98.8672 5.85742 99.1797 6.0332Z" fill="#FFF79C"/>
</g>
<defs>
<filter id="filter0_d_102_5" x="0.615234" y="0.0859375" width="104.146" height="29.7969" filterUnits="userSpaceOnUse" color-interpolation-filters="sRGB">
<feFlood flood-opacity="0" result="BackgroundImageFix"/>
<feColorMatrix in="SourceAlpha" type="matrix" values="0 0 0 0 0 0 0 0 0 0 0 0 0 0 0 0 0 0 127 0" result="hardAlpha"/>
<feOffset dy="4"/>
<feGaussianBlur stdDeviation="2"/>
<feComposite in2="hardAlpha" operator="out"/>
<feColorMatrix type="matrix" values="0 0 0 0 0 0 0 0 0 0 0 0 0 0 0 0 0 0 0.25 0"/>
<feBlend mode="normal" in2="BackgroundImageFix" result="effect1_dropShadow_102_5"/>
<feBlend mode="normal" in="SourceGraphic" in2="effect1_dropShadow_102_5" result="shape"/>
</filter>
</defs>
</svg>
